# xmcd
#
# Track frame offsets: 
#        150
#        16216
#        33162
#        46450
#        64322
#        79564
#        93190
#        108531
#        121518
#        134780
#
# Disc length: 2001 seconds
#
# Revision: 0
# Processed by: cddbd v1.5.2PL0 Copyright (c) Steve Scherf et al.
# Submitted via: ExactAudioCopy v0.99pb4
#
DISCID=7a07cf0a
DTITLE=Tom Jones - Say You'll Stay Untill Tomorrow
DYEAR=1977
DGENRE=Pop
TTITLE0=Say You'll Stay Until Tomorrow
TTITLE1=One Man Woman
TTITLE2=Anniversary Song
TTITLE3=We Had It All
TTITLE4=Papa
TTITLE5=Take Me Tonight
TTITLE6=At Every End There's a Beginning
TTITLE7=Come to Me (From the original motion picture "The Pink Panther
TTITLE7=Strikes Again")
TTITLE8=When It's Just You and Me
TTITLE9=Have You Ever Been Lonely
EXTD=
EXTT0=
EXTT1=
EXTT2=
EXTT3=
EXTT4=
EXTT5=
EXTT6=
EXTT7=
EXTT8=
EXTT9=
PLAYORDER=
